<svg xmlns="http://www.w3.org/2000/svg" viewBox="0 0 420 420"><defs><pattern id="p" width="24" height="24" patternUnits="userSpaceOnUse" patternTransform="rotate(35)"><path d="M0 12h24" stroke="#fff" stroke-opacity=".4" stroke-width="6"/></pattern></defs><ellipse cx="210" cy="360" rx="112" ry="22" fill="#2b211d" opacity=".12"/><path d="M138 145c8-72 136-72 144 0" fill="none" stroke="#8e6e50" stroke-width="18" stroke-linecap="round"/><path d="M86 138h248l-17 146c-6 48-47 84-95 84h-24c-48 0-89-36-95-84z" fill="#d8c1a5"/><path d="M86 138h248l-17 146c-6 48-47 84-95 84h-24c-48 0-89-36-95-84z" fill="url(#p)"/><path d="M86 138h248l-17 146c-6 48-47 84-95 84h-24c-48 0-89-36-95-84z" fill="none" stroke="#fff" stroke-opacity=".6" stroke-width="10"/></svg>
