<svg xmlns="http://www.w3.org/2000/svg" viewBox="0 0 420 420"><defs><pattern id="p" width="22" height="22" patternUnits="userSpaceOnUse" patternTransform="rotate(35)"><path d="M0 11h22" stroke="#fff" stroke-opacity=".26" stroke-width="6"/></pattern></defs><ellipse cx="210" cy="360" rx="90" ry="20" fill="#2b211d" opacity=".14"/><path d="M156 148c7-60 102-60 108 0" fill="none" stroke="#f7e6e0" stroke-width="18" stroke-linecap="round"/><path d="M118 138h184l-22 160c-5 37-37 65-75 65s-70-28-75-65z" fill="#9d4f63"/><path d="M118 138h184l-22 160c-5 37-37 65-75 65s-70-28-75-65z" fill="url(#p)"/><path d="M118 138h184l-22 160c-5 37-37 65-75 65s-70-28-75-65z" fill="none" stroke="#fff" stroke-opacity=".55" stroke-width="10"/></svg>
