<svg xmlns="http://www.w3.org/2000/svg" viewBox="0 0 420 420"><defs><pattern id="p" width="24" height="24" patternUnits="userSpaceOnUse" patternTransform="rotate(35)"><path d="M0 12h24" stroke="#fff" stroke-opacity=".16" stroke-width="6"/></pattern></defs><ellipse cx="210" cy="360" rx="104" ry="22" fill="#2b211d" opacity=".18"/><path d="M145 140c8-72 122-72 130 0" fill="none" stroke="#b99564" stroke-width="18" stroke-linecap="round"/><path d="M102 132h216l-24 176c-5 39-39 69-79 69h-10c-40 0-74-30-79-69z" fill="#303034"/><path d="M102 132h216l-24 176c-5 39-39 69-79 69h-10c-40 0-74-30-79-69z" fill="url(#p)"/><path d="M102 132h216l-24 176c-5 39-39 69-79 69h-10c-40 0-74-30-79-69z" fill="none" stroke="#fff" stroke-opacity=".28" stroke-width="10"/><circle cx="210" cy="164" r="11" fill="#caa36a"/></svg>
