<svg xmlns="http://www.w3.org/2000/svg" viewBox="0 0 420 420"><defs><pattern id="p" width="26" height="26" patternUnits="userSpaceOnUse" patternTransform="rotate(35)"><path d="M0 13h26" stroke="#fff" stroke-opacity=".24" stroke-width="7"/></pattern></defs><ellipse cx="210" cy="360" rx="126" ry="24" fill="#2b211d" opacity=".16"/><path d="M132 128c8-88 148-88 156 0" fill="none" stroke="#efe0d1" stroke-width="22" stroke-linecap="round"/><path d="M72 122h276l-20 185c-6 48-47 84-96 84h-44c-49 0-90-36-96-84z" fill="#8b6352"/><path d="M72 122h276l-20 185c-6 48-47 84-96 84h-44c-49 0-90-36-96-84z" fill="url(#p)"/><path d="M72 122h276l-20 185c-6 48-47 84-96 84h-44c-49 0-90-36-96-84z" fill="none" stroke="#fff" stroke-opacity=".47" stroke-width="10"/></svg>
