<svg xmlns="http://www.w3.org/2000/svg" viewBox="0 0 420 420"><defs><pattern id="p" width="24" height="24" patternUnits="userSpaceOnUse" patternTransform="rotate(35)"><path d="M0 12h24" stroke="#fff" stroke-opacity=".28" stroke-width="6"/></pattern></defs><ellipse cx="210" cy="360" rx="112" ry="22" fill="#2b211d" opacity=".14"/><path d="M143 140c5-72 126-72 134 0" fill="none" stroke="#f8eee5" stroke-width="22" stroke-linecap="round"/><path d="M96 128h228l-24 188c-6 42-42 74-85 74h-10c-43 0-79-32-85-74z" fill="#71836d"/><path d="M96 128h228l-24 188c-6 42-42 74-85 74h-10c-43 0-79-32-85-74z" fill="url(#p)"/><path d="M96 128h228l-24 188c-6 42-42 74-85 74h-10c-43 0-79-32-85-74z" fill="none" stroke="#fff" stroke-opacity=".55" stroke-width="10"/></svg>
